/* XPM */
static char *texture_f_xpm[] = {
/* columns rows colors chars-per-pixel */
"32 32 2 1 ",
". c #000000",
"X c #FF0000",
/* pixels */
"................................",
"................................",
"................................",
"................................",
".....XXXXXXXXXXXXXXXXXXXXXX.....",
".....XXXXXXXXXXXXXXXXXXXXXX.....",
".....XX.........................",
".....XX.........................",
".....XX.........................",
".....XX.........................",
".....XX.........................",
".....XX.........................",
".....XX.................... ....",
".....XXXXXXXXXXXXXXXXXX.........",
".....XX.........................",
".....XX.........................",
".....XX.........................",
".....XX.........................",
".....XX.........................",
".....XX.........................",
".....XX.........................",
".....XX.........................",
".....XX.........................",
".....XX.........................",
".....XX.........................",
".....XX.........................",
"................................",
"................................",
"................................",
"................................",
"................................",
"................................"
};